<svg xmlns="http://www.w3.org/2000/svg" viewBox="0 0 1254 1254">
  <g transform="translate(0.000000,1254.000000) scale(0.100000,-0.100000)"
fill="#000" stroke="none">
    <path d="M8415 11530 c-127 -26 -259 -101 -341 -194 -25 -28 -61 -82 -80 -121
-68 -139 -64 74 -64 -2931 l0 -2722 -70 -17 c-153 -37 -285 -154 -343 -303
-10 -24 -49 -226 -88 -450 -38 -224 -86 -495 -105 -602 -37 -207 -141 -803
-199 -1135 -19 -110 -60 -344 -91 -520 l-56 -320 5 -250 c5 -274 17 -351 76
-514 113 -309 367 -540 704 -639 l92 -27 1509 -3 c1670 -3 1599 -5 1776 61
340 128 591 421 664 777 25 122 39 334 33 480 -7 150 -153 1046 -312 1915 -91
495 -108 587 -175 965 -35 196 -47 247 -76 308 -61 128 -179 220 -327 257
l-67 17 -1 142 c0 77 -1 1309 -2 2736 -2 2477 -3 2598 -20 2659 -57 199 -188
339 -382 408 l-80 28 -970 2 c-533 0 -988 -3 -1010 -7z m2007 -258 c107 -53
177 -144 197 -256 8 -42 11 -1313 11 -4378 0 -3710 -2 -4323 -14 -4353 -8 -19
-29 -41 -48 -52 -31 -17 -90 -18 -1173 -18 -923 0 -1144 2 -1163 13 -13 7 -32
28 -42 45 -20 32 -20 92 -20 4378 0 3943 1 4350 16 4399 19 63 35 92 83 143
34 37 107 81 161 98 14 4 457 7 985 6 l960 -2 47 -23z m-2489 -7439 c4 -1075
9 -1513 17 -1552 33 -157 130 -245 295 -271 48 -7 425 -10 1200 -8 1055 3
1134 5 1185 21 114 38 188 117 217 236 18 71 31 994 32 2215 0 467 3 851 5
853 2 3 24 -1 48 -9 64 -19 133 -91 151 -159 15 -54 65 -323 203 -1084 101
-562 117 -650 168 -960 75 -455 119 -766 120 -861 1 -84 -1 -94 -29 -140 -39
-63 -105 -107 -197 -130 -70 -18 -147 -19 -1953 -19 -2051 0 -1931 -3 -2048
58 -73 38 -102 73 -123 145 -16 54 -16 61 10 222 97 591 297 1736 411 2345 35
187 66 360 70 385 9 56 35 107 72 141 32 31 100 68 124 69 15 0 17 -121 22
-1497z m3672 -1995 c-23 -256 -75 -411 -182 -543 -99 -122 -262 -223 -433
-268 l-85 -22 -1490 0 -1490 0 -88 22 c-323 83 -532 294 -601 609 -14 63 -37
256 -32 261 2 2 27 -10 57 -26 71 -38 174 -68 279 -81 55 -6 728 -10 1907 -10
1957 0 1879 -2 2013 50 30 12 73 34 95 50 22 16 44 29 48 29 5 1 5 -32 2 -71z"/>
<path d="M9038 11174 c-51 -27 -73 -101 -44 -152 7 -13 26 -32 42 -43 27 -18
50 -19 367 -19 377 0 386 2 413 65 18 43 18 59 -1 99 -31 65 -36 66 -412 66
-279 -1 -343 -3 -365 -16z"/>
<path d="M8770 10700 c-254 -3 -361 -9 -376 -17 -34 -20 -72 -70 -84 -111 -11
-41 -12 -1508 -1 -1937 7 -281 7 -281 86 -327 l40 -23 955 3 955 4 45 21 c31
15 52 35 67 62 l23 40 -3 1090 -2 1090 -23 37 c-13 21 -40 45 -66 57 -42 21
-53 21 -652 19 -335 -1 -769 -5 -964 -8z m555 -485 l0 -290 -410 0 -410 0 -3
280 c-1 154 0 285 3 292 3 11 89 13 412 11 l408 -3 0 -290z m950 0 l0 -290
-394 -3 c-282 -1 -398 1 -407 9 -11 9 -14 65 -14 279 0 148 3 276 6 284 6 15
48 16 408 14 l401 -3 0 -290z m-947 -711 c2 -230 0 -283 -12 -293 -10 -8 -124
-11 -412 -9 l-399 3 -3 280 c-1 154 0 285 3 292 3 11 89 13 412 11 l408 -3 3
-281z m950 -3 c2 -221 -1 -286 -10 -293 -22 -13 -782 -10 -796 4 -17 17 -17
549 0 566 9 9 108 12 408 10 l395 -3 3 -284z m-960 -434 c9 -6 12 -76 12 -292
l0 -285 -22 -5 c-13 -3 -198 -4 -413 -3 l-390 3 -3 288 c-2 278 -2 288 17 295
27 10 783 9 799 -1z m943 3 c18 -10 19 -24 19 -294 l0 -283 -187 -6 c-276 -10
-578 -8 -608 3 l-25 10 2 282 3 283 230 5 c436 10 546 10 566 0z"/>
<path d="M9260 8116 c-419 -75 -736 -371 -825 -771 -48 -214 -9 -445 110 -647
50 -87 169 -217 258 -284 285 -214 682 -258 1001 -110 275 127 469 358 548
654 31 116 28 295 -6 425 -90 349 -372 639 -696 717 -110 26 -291 34 -390 16z
m365 -211 c148 -49 272 -133 365 -248 241 -298 232 -734 -20 -1010 -66 -72
-171 -150 -252 -186 -381 -173 -837 -9 -1028 368 -52 101 -71 175 -77 296 -11
230 60 407 232 581 98 98 187 154 308 194 101 33 151 39 277 35 91 -2 131 -8
195 -30z"/>
<path d="M9340 7700 c-192 -24 -357 -154 -438 -346 -121 -288 52 -640 353
-719 68 -17 199 -19 265 -4 238 55 424 310 407 559 -22 318 -287 547 -587 510z
m200 -202 c181 -83 259 -315 171 -504 -136 -290 -508 -293 -645 -4 -28 59 -31
74 -31 165 0 89 3 107 28 160 45 97 124 168 223 199 72 23 185 16 254 -16z"/>
<path d="M8553 6180 c-144 -30 -244 -147 -251 -295 -5 -94 24 -172 87 -235 85
-84 190 -115 297 -87 158 41 254 173 242 331 -16 186 -194 323 -375 286z m143
-145 c68 -34 104 -90 104 -162 0 -112 -77 -193 -185 -193 -60 0 -103 19 -142
63 -84 95 -55 234 59 291 65 32 101 33 164 1z"/>
<path d="M8527 5952 c-20 -21 -37 -42 -37 -47 0 -14 66 -65 84 -65 9 0 16 9
16 20 0 16 7 20 34 20 69 0 73 -60 5 -70 -28 -4 -35 -10 -37 -32 -3 -27 -1
-28 40 -28 51 0 85 23 96 65 20 71 -25 125 -104 125 -27 0 -35 4 -31 14 5 13
-10 36 -23 36 -3 0 -23 -17 -43 -38z"/>
<path d="M9349 6179 c-96 -14 -192 -86 -241 -179 -19 -37 -23 -60 -23 -135 0
-78 4 -97 27 -141 121 -231 456 -229 570 3 29 59 33 77 32 143 0 62 -5 85 -29
133 -62 125 -199 196 -336 176z m155 -156 c155 -110 80 -348 -109 -346 -107 1
-188 82 -188 188 0 153 173 245 297 158z"/>
<path d="M9328 5942 c-76 -64 -75 -62 -56 -76 11 -8 18 -30 20 -62 l3 -49 103
-3 102 -3 0 51 c0 36 4 52 15 56 29 12 14 42 -45 87 -33 26 -66 47 -73 46 -6
0 -38 -21 -69 -47z m104 -39 c11 -10 18 -30 18 -55 l0 -38 -50 0 -50 0 0 39
c0 30 6 44 22 55 28 20 37 20 60 -1z"/>
<path d="M10069 6166 c-74 -26 -146 -94 -181 -171 -26 -58 -31 -175 -9 -238
23 -67 84 -132 158 -169 59 -29 77 -33 143 -32 130 2 232 68 285 185 24 55 27
70 23 143 -7 127 -60 211 -170 266 -53 26 -72 30 -137 30 -42 -1 -92 -7 -112
-14z m197 -132 c22 -11 49 -36 66 -63 26 -41 29 -53 26 -112 -3 -54 -9 -73
-32 -104 -53 -70 -158 -95 -234 -56 -71 36 -102 87 -102 167 0 85 50 153 131
179 51 17 93 13 145 -11z"/>
<path d="M10064 5955 c-12 -29 7 -35 116 -35 109 0 124 5 112 38 -7 19 -221
17 -228 -3z"/>
<path d="M10064 5875 c-12 -29 7 -35 117 -35 l109 0 0 25 0 25 -110 0 c-88 0
-112 -3 -116 -15z"/>
<path d="M10115 5812 c-41 -6 -50 -11 -50 -27 0 -19 8 -20 106 -23 108 -3 139
6 120 36 -9 15 -108 22 -176 14z"/>
<path d="M8550 5437 c-69 -15 -118 -45 -170 -104 -69 -79 -72 -99 -68 -525 3
-367 3 -374 26 -416 82 -154 256 -217 408 -148 72 33 117 75 152 141 l27 50 0
385 c0 295 -3 394 -13 423 -24 67 -85 132 -154 165 -76 37 -134 45 -208 29z
m175 -161 c73 -56 75 -68 75 -451 0 -313 -2 -343 -19 -382 -35 -76 -136 -119
-216 -93 -52 17 -113 75 -125 118 -6 22 -10 174 -10 367 0 299 2 334 19 370
34 74 90 107 177 102 49 -2 69 -8 99 -31z"/>
<path d="M8586 5175 c-3 -9 -6 -28 -6 -41 0 -21 -5 -24 -34 -24 -26 0 -36 -5
-41 -21 -9 -26 4 -39 41 -43 23 -3 30 -9 35 -36 4 -17 12 -37 18 -43 18 -18
46 5 49 41 3 26 9 32 40 39 30 7 37 13 37 33 0 22 -5 25 -37 28 -35 3 -37 5
-40 40 -3 32 -7 37 -29 40 -17 2 -29 -3 -33 -13z"/>
<path d="M8514 4596 c-15 -12 -17 -18 -8 -33 10 -15 26 -18 115 -18 92 0 104
2 107 18 7 37 -16 47 -107 47 -60 0 -93 -4 -107 -14z"/>
<path d="M10123 5440 c-59 -12 -118 -45 -162 -90 -86 -89 -93 -135 -88 -559 2
-244 7 -346 17 -373 25 -69 81 -130 153 -167 58 -30 76 -34 140 -34 128 0 232
66 285 182 l26 56 0 365 c1 400 -2 419 -57 492 -78 102 -198 151 -314 128z
m161 -164 c20 -15 45 -45 56 -66 19 -37 20 -59 20 -382 0 -315 -2 -346 -19
-385 -54 -118 -228 -132 -309 -25 l-27 35 -3 346 c-2 190 0 361 3 379 7 39 58
100 100 119 49 22 136 12 179 -21z"/>
<path d="M10111 5103 c-54 -69 -59 -88 -28 -107 15 -9 24 -4 59 33 l41 43 38
-43 c32 -37 40 -42 56 -33 10 6 18 20 18 31 0 29 -91 143 -114 143 -11 0 -39
-26 -70 -67z"/>
<path d="M10072 4648 c-7 -7 -12 -17 -12 -24 0 -12 93 -139 111 -149 14 -9 48
23 94 90 39 58 42 88 9 93 -14 2 -33 -11 -58 -38 l-37 -41 -20 25 c-46 58 -64
67 -87 44z"/>
<path d="M9262 5399 c-121 -60 -188 -174 -180 -306 21 -331 459 -419 607 -121
26 51 31 73 31 133 0 94 -22 153 -78 216 -67 75 -144 109 -243 109 -65 0 -85
-5 -137 -31z m253 -126 c165 -115 74 -375 -127 -361 -221 16 -252 320 -40 389
47 15 123 2 167 -28z"/>
<path d="M9277 5193 c-4 -3 -7 -44 -7 -90 0 -99 8 -103 86 -48 l49 35 5 -32
c4 -27 9 -33 30 -33 24 0 25 2 28 76 2 59 -1 79 -13 89 -21 18 -45 -4 -45 -42
l0 -29 -58 40 c-61 43 -65 45 -75 34z"/>
<path d="M9487 5193 c-4 -3 -7 -44 -7 -90 0 -82 0 -83 25 -83 25 0 25 1 25 84
0 67 -3 85 -16 90 -19 7 -19 7 -27 -1z"/>
<path d="M9304 4716 c-183 -60 -276 -275 -190 -444 121 -240 464 -236 583 6
23 47 28 70 28 132 0 127 -63 228 -178 287 -62 32 -177 41 -243 19z m195 -132
c83 -44 125 -139 100 -222 -51 -171 -272 -205 -364 -57 -25 41 -30 59 -30 111
0 53 5 69 30 105 61 87 172 114 264 63z"/>
<path d="M9302 4517 c-9 -10 -7 -19 4 -35 11 -17 12 -26 4 -42 -6 -12 -10 -37
-8 -57 3 -34 6 -37 51 -48 26 -7 54 -20 61 -30 9 -13 19 -16 32 -10 10 4 30 8
43 9 36 2 36 20 0 60 -30 35 -31 37 -14 62 18 27 15 56 -8 88 -13 18 -15 18
-55 -5 l-41 -24 -23 23 c-28 26 -32 26 -46 9z"/>
<path d="M8519 4086 c-180 -64 -268 -257 -199 -440 71 -186 311 -259 482 -146
60 40 113 119 134 199 51 202 -108 402 -319 401 -34 -1 -78 -7 -98 -14z m213
-142 c110 -77 124 -226 31 -316 -46 -45 -79 -58 -143 -58 -62 0 -97 13 -138
53 -48 46 -65 84 -66 147 0 60 24 118 66 157 66 62 176 69 250 17z"/>
<path d="M8531 3820 c-28 -22 -51 -45 -51 -50 0 -16 110 -92 125 -86 7 2 15
17 17 31 l3 27 43 -32 c64 -46 73 -37 70 62 -3 96 -15 106 -71 64 -42 -32 -47
-32 -47 -1 0 37 -29 32 -89 -15z"/>
<path d="M10074 4080 c-68 -27 -132 -85 -169 -151 -28 -50 -30 -62 -30 -154 0
-86 3 -107 24 -149 63 -129 205 -201 344 -175 103 18 173 66 224 151 102 171
34 391 -145 471 -68 30 -182 33 -248 7z m201 -121 c147 -69 164 -265 32 -356
-36 -25 -49 -28 -118 -28 -71 0 -80 2 -116 31 -57 46 -83 98 -83 167 0 154
148 250 285 186z"/>
<path d="M10082 3858 c-12 -12 -17 -134 -6 -162 9 -22 18 -20 67 15 l42 31 5
-28 c3 -15 10 -29 15 -31 14 -4 120 75 120 90 0 16 -97 88 -115 84 -8 -1 -16
-12 -18 -25 -4 -28 -8 -27 -46 1 -47 35 -52 37 -64 25z"/>
<path d="M9344 4050 c-101 -21 -194 -95 -238 -189 -32 -71 -30 -199 6 -266 32
-60 97 -125 158 -156 60 -31 181 -33 255 -5 66 26 147 103 176 169 32 73 33
193 1 258 -67 138 -219 218 -358 189z m139 -134 c110 -46 155 -184 94 -288
-57 -98 -197 -127 -291 -61 -55 39 -81 93 -81 170 0 52 5 68 31 105 41 58 95
88 162 88 29 0 67 -6 85 -14z"/>
<path d="M9331 3836 c-8 -9 -11 -48 -9 -106 4 -124 10 -128 114 -63 43 28 79
56 79 64 0 14 -69 64 -137 99 -30 16 -38 17 -47 6z"/>
<path d="M8425 3285 c-120 -42 -156 -233 -62 -333 56 -60 -5 -57 1017 -60 648
-2 946 0 972 8 75 22 122 80 133 166 14 102 -43 199 -130 223 -28 8 -320 11
-965 11 -769 -1 -932 -3 -965 -15z m580 -190 l0 -75 -261 0 c-237 0 -264 2
-284 18 -16 13 -22 29 -22 57 0 28 6 44 22 57 20 16 47 18 284 18 l261 0 0
-75z m658 47 c9 -8 17 -29 17 -46 -1 -71 -19 -76 -283 -76 -212 0 -226 1 -251
21 -30 23 -34 63 -11 96 19 27 45 29 310 24 161 -3 203 -6 218 -19z m677 8
c12 -12 20 -33 20 -55 0 -22 -8 -43 -20 -55 -19 -19 -33 -20 -286 -20 l-265 0
8 23 c4 12 8 36 8 52 0 17 -4 40 -8 53 l-8 22 265 0 c253 0 267 -1 286 -20z"/>
<path d="M8404 2781 c-65 -30 -88 -76 -92 -191 -2 -52 1 -114 7 -137 13 -49
64 -97 118 -112 48 -14 376 -14 423 -1 41 11 94 61 109 103 6 16 11 77 11 136
0 96 -3 112 -22 141 -50 73 -55 75 -296 78 -195 2 -221 0 -258 -17z m431 -126
c20 -19 25 -34 25 -73 0 -122 -24 -135 -242 -130 -175 4 -178 5 -185 99 -5 74
9 110 47 120 14 4 94 7 178 8 150 1 153 0 177 -24z"/>
<path d="M9150 2777 c-69 -36 -90 -86 -90 -211 0 -129 21 -179 90 -213 42 -22
56 -23 251 -23 195 0 208 1 249 23 69 36 85 77 85 217 0 103 -2 119 -23 152
-13 21 -40 45 -66 57 -39 19 -60 21 -248 21 -195 0 -207 -1 -248 -23z m444
-123 c12 -11 16 -35 16 -88 0 -113 4 -110 -200 -114 -222 -4 -220 -5 -220 113
0 69 3 86 18 94 10 6 92 11 194 11 147 0 179 -3 192 -16z"/>
<path d="M9925 2788 c-44 -15 -82 -55 -101 -104 -25 -65 -17 -226 14 -276 44
-70 52 -73 291 -76 248 -4 285 3 326 67 22 32 25 48 27 161 4 148 -9 180 -82
218 -42 21 -56 22 -245 21 -111 0 -213 -5 -230 -11z m416 -128 c16 -9 19 -22
19 -95 0 -116 2 -115 -212 -115 -207 0 -208 1 -208 112 0 109 -3 108 207 108
101 0 182 -4 194 -10z"/>
<path d="M2740 4820 c-897 -34 -1357 -141 -1568 -363 -113 -120 -181 -252
-427 -827 -202 -472 -221 -523 -234 -629 -25 -194 74 -938 145 -1098 102 -231
367 -428 691 -513 193 -51 168 -50 2361 -50 1380 0 2074 3 2140 11 436 48 785
251 932 543 60 120 98 325 146 780 32 305 33 425 4 581 -44 245 -170 808 -200
897 -42 127 -110 263 -161 321 -161 186 -490 282 -1159 338 -163 14 -2346 21
-2670 9z m2820 -233 c603 -57 806 -132 915 -337 50 -97 70 -158 116 -363 89
-403 142 -706 143 -822 1 -102 -1 -114 -28 -165 -96 -185 -383 -297 -844 -329
-208 -15 -4150 -15 -4364 -1 -568 39 -839 204 -764 465 10 32 92 231 183 444
91 212 178 419 194 459 102 256 211 402 358 481 198 105 478 148 1211 184 36
2 659 3 1385 2 1134 -2 1345 -4 1495 -18z m1140 -2107 c-53 -415 -80 -505
-185 -619 -158 -170 -394 -279 -671 -311 -71 -8 -684 -10 -2189 -8 l-2090 4
-98 22 c-279 64 -520 222 -612 402 -27 53 -57 196 -85 410 -11 85 -22 165 -24
177 -3 21 1 19 68 -17 131 -72 348 -132 576 -161 132 -17 4075 -25 4375 -9
421 22 705 94 905 228 24 17 45 30 47 29 1 -1 -7 -67 -17 -147z"/>
<path d="M3560 4384 c-19 -2 -87 -9 -150 -15 -63 -6 -182 -22 -265 -35 -669
-109 -1083 -351 -1150 -671 -38 -178 64 -378 255 -504 565 -374 1850 -449
2740 -159 135 43 343 148 439 221 288 217 331 492 113 721 -170 179 -494 317
-912 388 -266 45 -357 52 -700 55 -184 2 -351 1 -370 -1z m760 -198 c690 -76
1174 -321 1147 -581 -10 -102 -81 -192 -217 -281 -531 -343 -1746 -427 -2522
-174 -343 113 -547 290 -524 456 40 292 614 537 1391 594 161 12 558 4 725
-14z"/>
  </g>
</svg>